<svg xmlns="http://www.w3.org/2000/svg" viewBox="0 0 516.63 164"><defs><style>.cls-1{fill:#fbb03b;}.cls-2{fill:#fff;}</style></defs><title>CarlFelix_wide_logo_POS</title><g id="Lager_2" data-name="Lager 2"><g id="Lager_1-2" data-name="Lager 1"><path d="M184.48,120h-2.71l-1.72-4.43c-6.4,4.67-9.84,5.82-16.89,5.82-17.55,0-30-11.64-30-28.13,0-17.13,12.47-29.35,30-29.35,6.72,0,10.74,1.39,15.33,5.33l2.3-3.94h2.7l.25,15.91H181a29.51,29.51,0,0,0-2.79-6.89,14.94,14.94,0,0,0-12.87-7.71c-8.28,0-12.79,6.89-12.79,19.6V99.37c0,6.48.74,10.17,2.7,13.61,2.14,3.78,5.74,5.74,10.42,5.74,5.25,0,9.26-2.21,13-7a23,23,0,0,0,4.43-9h2.71Z"/><path d="M212.75,92.24c0-3-1.56-4.76-4.18-4.76-1.81,0-3.28.9-3.28,2,0,.41.08.57.65,1.15a5.1,5.1,0,0,1,1.48,3.69c0,3.61-3.28,6.07-8,6.07-4.59,0-7.46-2.3-7.46-5.91s2.62-6.56,7.46-8.36c3.12-1.23,6.32-1.64,12-1.64,13.86,0,17.55,2,17.55,9.18V114c0,1.39.41,2,1.23,2,.66,0,1.23-.41,2.46-2l2,1.48a12.43,12.43,0,0,1-10.91,5.65c-5.33,0-8.2-1.64-10.25-5.65-4.83,4.09-8.77,5.65-14.18,5.65s-9.35-3.6-9.35-8.69c0-4.43,2.62-7.38,8.12-9.35a50.59,50.59,0,0,1,14.76-2.7Zm0,11.15a4.76,4.76,0,0,0-1.31-.16c-3.2,0-5.33,2.78-5.33,6.8,0,3,1.31,4.84,3.44,4.84s3.2-1.64,3.2-4.51Z"/><path d="M240.89,88.06H236V85.6h4.51c8.28,0,11.31-.17,16.56-1.07v6.72c2.46-4.67,5.74-6.72,10.5-6.72,5.74,0,9.59,3.94,9.59,9.76,0,5-3.28,8.28-8.2,8.28-4.43,0-7.87-3-7.87-7a6.18,6.18,0,0,1,1.31-3.77c.58-.74.74-1,.74-1.31a.93.93,0,0,0-.9-1c-1,0-2.22,1.15-3.36,3-1.48,2.46-1.81,4.1-1.81,9.52v15.58H262V120H236v-2.46h4.92Z"/><path d="M297.12,117.58H302V120h-26v-2.46H281V67.8h-4.92V65.34h4.51c8.28,0,11.31-.16,16.56-1.06Z"/><path d="M349.36,117.58h8.12V120H325.82v-2.46h5.5V67.8h-5.5V65.34H374.2V80.43h-2.79c-1.47-8.69-7.13-12.79-17.46-12.63h-4.59V91.42h2.79c6.31-.08,9.1-3.12,9.1-9.84H364v22.3h-2.79c-.5-7.3-3-10.08-9.35-10h-2.54Z"/><path d="M387.65,103.72c0,11,2.13,14.68,8.53,14.68,6,0,11.07-3.94,14.1-10.83l2.05.9c-3.44,8.61-9.75,12.71-19.76,12.71-5.58,0-10.5-1.06-13.78-2.87a17.7,17.7,0,0,1-8.61-15.66c0-10.82,9-18.12,22.55-18.12,12.31,0,19.11,5.74,19.6,16.48H387.65Zm6-5.17c2.05,0,2.21-.24,2.21-3.77,0-5.41-1.15-7.54-3.94-7.54-2.37,0-3.52,1.55-4,5.16a46.86,46.86,0,0,0-.25,6.15Z"/><path d="M434.28,117.58h4.92V120h-26v-2.46h4.92V67.8h-4.92V65.34h4.51c8.28,0,11.32-.16,16.56-1.06Z"/><path d="M446.07,88.06h-4.92V85.6h4.51c8.29,0,11-.17,16.57-1.07v33.05h4.92V120h-26v-2.46h4.92Zm16.65-16.24a9,9,0,1,1-9-9.1A8.95,8.95,0,0,1,462.72,71.82Z"/><path d="M512.44,117.58h4.19V120h-27v-2.46h3.61l-6.89-10.66-6.64,7.38a3.4,3.4,0,0,0-1.15,2.13c0,.74.65,1.15,2.05,1.15h1.88V120H468.33v-2.46h2.21c2.71-.08,3.28-.41,5.82-3.37l8.61-9.67L474.56,88.06h-4V85.6h27v2.46h-3.61l5.25,8.36L504,90.93A3.25,3.25,0,0,0,505,89c0-.66-.57-1-1.8-1h-1.81V85.6H514v2.46h-1.56c-2.21.16-3,.57-5.08,2.87l-7,7.54Z"/><path d="M133.23,162.61l8.38-21.35a1,1,0,0,1,1-.73h1.59a1,1,0,0,1,1,.73l8.42,21.35c.23.63,0,1-.7,1h-.79a1,1,0,0,1-1.06-.73l-1.65-4.22h-12l-1.65,4.22a1,1,0,0,1-1,.73h-.82C133.26,163.64,133,163.24,133.23,162.61Zm15.44-6.07L143.42,143l-5.21,13.53Z"/><path d="M155.87,160.93c-.33-.56,0-1,.53-1.12l.6-.17c.49-.13.79.07,1.12.5a4.12,4.12,0,0,0,3.5,1.68c1.84,0,3.26-1.09,3.26-2.64,0-1.25-.92-2-2.31-2.47l-2.34-.76c-2.38-.73-3.93-2-3.93-4.36,0-2.61,2-4.79,5.28-4.79a5.16,5.16,0,0,1,4.79,2.71c.29.56,0,1-.6,1.12l-.52.13c-.5.14-.8-.06-1.13-.52a3,3,0,0,0-2.47-1.26,2.67,2.67,0,0,0-2.91,2.54c0,1.36,1.16,2,2.28,2.38l2.44.79c2.94.89,3.83,2.71,3.83,4.52,0,3-2.64,4.79-5.71,4.79A6.22,6.22,0,0,1,155.87,160.93Z"/><path d="M169.85,160.93c-.33-.56,0-1,.53-1.12l.59-.17c.5-.13.79.07,1.12.5a4.12,4.12,0,0,0,3.5,1.68c1.85,0,3.27-1.09,3.27-2.64,0-1.25-.93-2-2.31-2.47l-2.34-.76c-2.38-.73-3.93-2-3.93-4.36,0-2.61,2-4.79,5.28-4.79a5.14,5.14,0,0,1,4.78,2.71c.3.56,0,1-.59,1.12l-.53.13c-.49.14-.79-.06-1.12-.52a3,3,0,0,0-2.48-1.26,2.66,2.66,0,0,0-2.9,2.54c0,1.36,1.15,2,2.28,2.38l2.44.79c2.94.89,3.83,2.71,3.83,4.52,0,3-2.64,4.79-5.71,4.79A6.2,6.2,0,0,1,169.85,160.93Z"/><path d="M184.2,141.69a1.82,1.82,0,1,1,1.82,1.85A1.79,1.79,0,0,1,184.2,141.69Zm.56,21.06V148.06a.83.83,0,0,1,.9-.89h.75a.81.81,0,0,1,.86.89v14.69a.81.81,0,0,1-.86.89h-.75A.82.82,0,0,1,184.76,162.75Z"/><path d="M191,160.93c-.33-.56,0-1,.53-1.12l.59-.17c.49-.13.79.07,1.12.5a4.12,4.12,0,0,0,3.5,1.68c1.85,0,3.27-1.09,3.27-2.64,0-1.25-.93-2-2.31-2.47l-2.35-.76c-2.37-.73-3.92-2-3.92-4.36,0-2.61,2-4.79,5.28-4.79a5.14,5.14,0,0,1,4.78,2.71c.3.56,0,1-.59,1.12l-.53.13c-.49.14-.79-.06-1.12-.52a3,3,0,0,0-2.48-1.26,2.66,2.66,0,0,0-2.9,2.54c0,1.36,1.15,2,2.28,2.38l2.44.79c2.94.89,3.83,2.71,3.83,4.52,0,3-2.64,4.79-5.71,4.79A6.2,6.2,0,0,1,191,160.93Z"/><path d="M206.77,158.49v-9.31h-2.24c-.36,0-.53-.16-.53-.53v-1a.48.48,0,0,1,.53-.53h2.24l.5-4.23a.75.75,0,0,1,.82-.72h.43a.71.71,0,0,1,.8.76v4.19h4.78a.49.49,0,0,1,.53.53v1a.47.47,0,0,1-.53.53h-4.78v9.47c0,2.41,1.12,3.14,2.37,3.14a2.16,2.16,0,0,0,2.35-2.18A2.23,2.23,0,0,0,214,159c0-.4.1-.6.46-.6h1.16a.54.54,0,0,1,.59.43,5.24,5.24,0,0,1,.13,1.09c0,2.28-1.61,4.06-4.62,4.06C209.22,164,206.77,162.81,206.77,158.49Z"/><path d="M218.08,155.42c0-4.72,3.17-8.62,8.22-8.62a7.22,7.22,0,0,1,6.47,3.64v-2.38a.8.8,0,0,1,.85-.89h.76a.82.82,0,0,1,.9.89v14.69a.82.82,0,0,1-.9.89h-.76a.79.79,0,0,1-.85-.89V160.4a7.15,7.15,0,0,1-6.47,3.6C221.31,164,218.08,160.14,218.08,155.42Zm14.72,0a6.07,6.07,0,0,0-6.24-6.37c-3.79,0-6,2.9-6,6.37s2.21,6.34,6,6.34A6,6,0,0,0,232.8,155.42Z"/><path d="M240.09,162.75V148.06a.82.82,0,0,1,.86-.89h.75a.82.82,0,0,1,.9.89v2.61a5.84,5.84,0,0,1,5.74-3.87c3.5,0,6.53,2,6.53,7.5v8.45a.82.82,0,0,1-.89.89h-.76a.82.82,0,0,1-.89-.89V154.3c0-4-2.08-5.25-4.16-5.25-1.81,0-5.54,1.29-5.57,6.6v7.1a.82.82,0,0,1-.9.89H241A.81.81,0,0,1,240.09,162.75Z"/><path d="M258.32,160.93c-.33-.56,0-1,.52-1.12l.6-.17c.49-.13.79.07,1.12.5a4.12,4.12,0,0,0,3.5,1.68c1.85,0,3.27-1.09,3.27-2.64,0-1.25-.93-2-2.31-2.47l-2.35-.76c-2.37-.73-3.92-2-3.92-4.36,0-2.61,2-4.79,5.28-4.79a5.14,5.14,0,0,1,4.78,2.71c.3.56,0,1-.59,1.12l-.53.13c-.5.14-.79-.06-1.12-.52a3,3,0,0,0-2.48-1.26,2.66,2.66,0,0,0-2.9,2.54c0,1.36,1.15,2,2.27,2.38l2.45.79c2.93.89,3.83,2.71,3.83,4.52,0,3-2.64,4.79-5.71,4.79A6.2,6.2,0,0,1,258.32,160.93Z"/><path d="M271.69,162.61l8.38-21.35a1,1,0,0,1,1-.73h1.59a1,1,0,0,1,1,.73l8.42,21.35c.23.63,0,1-.7,1h-.79a1,1,0,0,1-1.05-.73l-1.65-4.22H275.88l-1.65,4.22a1,1,0,0,1-1,.73h-.83C271.72,163.64,271.46,163.24,271.69,162.61Zm15.44-6.07L281.89,143l-5.22,13.53Z"/><path d="M294.33,160.93c-.33-.56,0-1,.53-1.12l.6-.17c.49-.13.79.07,1.12.5a4.12,4.12,0,0,0,3.5,1.68c1.85,0,3.26-1.09,3.26-2.64,0-1.25-.92-2-2.3-2.47l-2.35-.76c-2.37-.73-3.93-2-3.93-4.36,0-2.61,2.05-4.79,5.28-4.79a5.15,5.15,0,0,1,4.79,2.71c.3.56,0,1-.59,1.12l-.53.13c-.5.14-.79-.06-1.12-.52a3,3,0,0,0-2.48-1.26,2.66,2.66,0,0,0-2.9,2.54c0,1.36,1.15,2,2.27,2.38l2.45.79c2.93.89,3.82,2.71,3.82,4.52,0,3-2.64,4.79-5.71,4.79A6.22,6.22,0,0,1,294.33,160.93Z"/><path d="M308.31,160.93c-.33-.56,0-1,.53-1.12l.59-.17c.5-.13.79.07,1.12.5a4.13,4.13,0,0,0,3.5,1.68c1.85,0,3.27-1.09,3.27-2.64,0-1.25-.92-2-2.31-2.47l-2.34-.76c-2.38-.73-3.93-2-3.93-4.36,0-2.61,2.05-4.79,5.28-4.79a5.16,5.16,0,0,1,4.79,2.71c.29.56,0,1-.6,1.12l-.53.13c-.49.14-.79-.06-1.12-.52a3,3,0,0,0-2.47-1.26,2.67,2.67,0,0,0-2.91,2.54c0,1.36,1.16,2,2.28,2.38l2.44.79c2.94.89,3.83,2.71,3.83,4.52,0,3-2.64,4.79-5.71,4.79A6.2,6.2,0,0,1,308.31,160.93Z"/><path d="M322.66,141.69a1.79,1.79,0,0,1,1.82-1.88,1.87,1.87,0,0,1,0,3.73A1.78,1.78,0,0,1,322.66,141.69Zm.57,21.06V148.06a.83.83,0,0,1,.89-.89h.76a.8.8,0,0,1,.85.89v14.69a.8.8,0,0,1-.85.89h-.76A.82.82,0,0,1,323.23,162.75Z"/><path d="M329.45,160.93c-.33-.56,0-1,.53-1.12l.59-.17c.5-.13.79.07,1.12.5a4.12,4.12,0,0,0,3.5,1.68c1.85,0,3.27-1.09,3.27-2.64,0-1.25-.92-2-2.31-2.47l-2.34-.76c-2.38-.73-3.93-2-3.93-4.36,0-2.61,2-4.79,5.28-4.79a5.16,5.16,0,0,1,4.79,2.71c.29.56,0,1-.6,1.12l-.53.13c-.49.14-.79-.06-1.12-.52a3,3,0,0,0-2.47-1.26,2.67,2.67,0,0,0-2.91,2.54c0,1.36,1.16,2,2.28,2.38l2.44.79c2.94.89,3.83,2.71,3.83,4.52,0,3-2.64,4.79-5.71,4.79A6.2,6.2,0,0,1,329.45,160.93Z"/><path d="M345.24,158.49v-9.31H343c-.36,0-.53-.16-.53-.53v-1a.48.48,0,0,1,.53-.53h2.25l.49-4.23a.75.75,0,0,1,.83-.72H347a.7.7,0,0,1,.79.76v4.19h4.78a.49.49,0,0,1,.53.53v1a.47.47,0,0,1-.53.53h-4.78v9.47c0,2.41,1.12,3.14,2.37,3.14a2.16,2.16,0,0,0,2.35-2.18,2.23,2.23,0,0,0-.07-.59c0-.4.1-.6.46-.6h1.16a.53.53,0,0,1,.59.43,4.88,4.88,0,0,1,.14,1.09c0,2.28-1.62,4.06-4.63,4.06C347.68,164,345.24,162.81,345.24,158.49Z"/><path class="cls-1" d="M54.67,0A54.73,54.73,0,0,0,0,54.67c0,29,49.7,104.59,51.82,107.79a3.41,3.41,0,0,0,5.7,0c2.11-3.2,51.81-78.79,51.81-107.79A54.72,54.72,0,0,0,54.67,0Z"/><path class="cls-2" d="M55.92,81.59a2.12,2.12,0,0,1-2.51,0c-1-.73-24.4-17.9-24.4-31.51C29,40.61,36,35,42.79,35c4.07,0,8.86,2.1,11.88,7.63,3-5.53,7.81-7.63,11.87-7.63,6.78,0,13.79,5.65,13.79,15.12C80.33,63.69,56.92,80.86,55.92,81.59Z"/></g></g></svg>